<svg xmlns="http://www.w3.org/2000/svg" viewBox="0 0 24 24" width="512" height="512">
  <style>
    .st0{fill:#217346;} /* Excel green color */
    .st1{fill:#FFFFFF;}
    .st2{fill:#217346;opacity:0.5;}
    .st3{fill:#083C30;}
  </style>
  <!-- Excel document background -->
  <path class="st0" d="M5,1v22h14V1H5z"/>
  <!-- Excel logo header -->
  <rect x="5" y="1" class="st3" width="14" height="3"/>
  <!-- Excel X logo -->
  <path class="st1" d="M15,13.5l2.5-3.5h-2L14,12l-1.5-2h-2l2.5,3.5L10.5,17h2l1.5-2l1.5,2h2L15,13.5z"/>
  <!-- Paper sheets -->
  <path class="st2" d="M3,8v12h2V8H3z"/>
  <path class="st2" d="M1,10v8h2v-8H1z"/>
  <!-- Upload arrow -->
  <path class="st1" d="M19,11l-2-2v1.5h-3v1h3V13L19,11z"/>
  <!-- Lines for data -->
  <rect x="7" y="6" class="st1" width="10" height="1"/>
  <rect x="7" y="8" class="st1" width="10" height="1"/>
  <rect x="7" y="19" class="st1" width="10" height="1"/>
  <rect x="7" y="21" class="st1" width="10" height="1"/>
</svg> 